<svg version="1.1" xmlns="http://www.w3.org/2000/svg" viewBox="0 0 446.978 446.978" xmlns:xlink="http://www.w3.org/1999/xlink" enable-background="new 0 0 446.978 446.978" id="S1cw0XE9z">
    <style type="text/css">
        @-webkit-keyframes HkwcvAmN5G_rkM5rEE9G_Animation {
    0% {
        -webkit-transform: translate(0px, 0px);
                transform: translate(0px, 0px)
    }
    25% {
        -webkit-transform: translate(0px, 20px);
                transform: translate(0px, 20px)
    }
    50% {
        -webkit-transform: translate(0px, 40px);
                transform: translate(0px, 40px)
    }
    75% {
        -webkit-transform: translate(0px, 20px);
                transform: translate(0px, 20px)
    }
    99.07% {
        -webkit-transform: translate(0px, 10px);
                transform: translate(0px, 10px)
    }
    100% {
        -webkit-transform: translate(0px, 10px);
                transform: translate(0px, 10px)
    }
}
@keyframes HkwcvAmN5G_rkM5rEE9G_Animation {
    0% {
        -webkit-transform: translate(0px, 0px);
                transform: translate(0px, 0px)
    }
    25% {
        -webkit-transform: translate(0px, 20px);
                transform: translate(0px, 20px)
    }
    50% {
        -webkit-transform: translate(0px, 40px);
                transform: translate(0px, 40px)
    }
    75% {
        -webkit-transform: translate(0px, 20px);
                transform: translate(0px, 20px)
    }
    99.07% {
        -webkit-transform: translate(0px, 10px);
                transform: translate(0px, 10px)
    }
    100% {
        -webkit-transform: translate(0px, 10px);
                transform: translate(0px, 10px)
    }
}
@-webkit-keyframes S1ucPAXN9M_BkfTNEV5G_Animation {
    0% {
        -webkit-transform: translate(0px, 0px);
                transform: translate(0px, 0px)
    }
    25% {
        -webkit-transform: translate(0px, 20px);
                transform: translate(0px, 20px)
    }
    50% {
        -webkit-transform: translate(0px, 40px);
                transform: translate(0px, 40px)
    }
    75% {
        -webkit-transform: translate(0px, 20px);
                transform: translate(0px, 20px)
    }
    99.07% {
        -webkit-transform: translate(0px, 10px);
                transform: translate(0px, 10px)
    }
    100% {
        -webkit-transform: translate(0px, 10px);
                transform: translate(0px, 10px)
    }
}
@keyframes S1ucPAXN9M_BkfTNEV5G_Animation {
    0% {
        -webkit-transform: translate(0px, 0px);
                transform: translate(0px, 0px)
    }
    25% {
        -webkit-transform: translate(0px, 20px);
                transform: translate(0px, 20px)
    }
    50% {
        -webkit-transform: translate(0px, 40px);
                transform: translate(0px, 40px)
    }
    75% {
        -webkit-transform: translate(0px, 20px);
                transform: translate(0px, 20px)
    }
    99.07% {
        -webkit-transform: translate(0px, 10px);
                transform: translate(0px, 10px)
    }
    100% {
        -webkit-transform: translate(0px, 10px);
                transform: translate(0px, 10px)
    }
}
@-webkit-keyframes BkS9wR7VcM_SkEZ7EVcG_Animation {
    0% {
        -webkit-transform: scale(0.5, 1);
                transform: scale(0.5, 1)
    }
    47.22% {
        -webkit-transform: scale(1, 0.5);
                transform: scale(1, 0.5)
    }
    95.37% {
        -webkit-transform: scale(0.5, 1);
                transform: scale(0.5, 1)
    }
    100% {
        -webkit-transform: scale(0.5, 1);
                transform: scale(0.5, 1)
    }
}
@keyframes BkS9wR7VcM_SkEZ7EVcG_Animation {
    0% {
        -webkit-transform: scale(0.5, 1);
                transform: scale(0.5, 1)
    }
    47.22% {
        -webkit-transform: scale(1, 0.5);
                transform: scale(1, 0.5)
    }
    95.37% {
        -webkit-transform: scale(0.5, 1);
                transform: scale(0.5, 1)
    }
    100% {
        -webkit-transform: scale(0.5, 1);
                transform: scale(0.5, 1)
    }
}
@-webkit-keyframes HJ89wAmV9M_Animation {
    5.56% {
        opacity: 0.85
    }
    16.67% {
        opacity: 0.75
    }
    25% {
        opacity: 0.65
    }
    33.33% {
        opacity: 0.55
    }
    41.67% {
        opacity: 0.5
    }
    50% {
        opacity: 0.55
    }
    58.33% {
        opacity: 0.6
    }
    66.67% {
        opacity: 0.7
    }
    75% {
        opacity: 0.8
    }
    83.33% {
        opacity: 0.9
    }
    91.67% {
        opacity: 0.95
    }
    98.15% {
        opacity: 1
    }
    0% {
        opacity: 0.85
    }
    100% {
        opacity: 1
    }
}
@keyframes HJ89wAmV9M_Animation {
    5.56% {
        opacity: 0.85
    }
    16.67% {
        opacity: 0.75
    }
    25% {
        opacity: 0.65
    }
    33.33% {
        opacity: 0.55
    }
    41.67% {
        opacity: 0.5
    }
    50% {
        opacity: 0.55
    }
    58.33% {
        opacity: 0.6
    }
    66.67% {
        opacity: 0.7
    }
    75% {
        opacity: 0.8
    }
    83.33% {
        opacity: 0.9
    }
    91.67% {
        opacity: 0.95
    }
    98.15% {
        opacity: 1
    }
    0% {
        opacity: 0.85
    }
    100% {
        opacity: 1
    }
}
@-webkit-keyframes HJ89wAmV9M_HyvqyE45z_Animation {
    5.56% {
        -webkit-transform: translate(10px, 0px);
                transform: translate(10px, 0px)
    }
    16.67% {
        -webkit-transform: translate(20px, 0px);
                transform: translate(20px, 0px)
    }
    25% {
        -webkit-transform: translate(30px, 0px);
                transform: translate(30px, 0px)
    }
    33.33% {
        -webkit-transform: translate(30px, 10px);
                transform: translate(30px, 10px)
    }
    41.67% {
        -webkit-transform: translate(30px, 20px);
                transform: translate(30px, 20px)
    }
    50% {
        -webkit-transform: translate(30px, 30px);
                transform: translate(30px, 30px)
    }
    58.33% {
        -webkit-transform: translate(20px, 30px);
                transform: translate(20px, 30px)
    }
    66.67% {
        -webkit-transform: translate(10px, 30px);
                transform: translate(10px, 30px)
    }
    75% {
        -webkit-transform: translate(0px, 30px);
                transform: translate(0px, 30px)
    }
    83.33% {
        -webkit-transform: translate(0px, 20px);
                transform: translate(0px, 20px)
    }
    91.67% {
        -webkit-transform: translate(0px, 10px);
                transform: translate(0px, 10px)
    }
    98.15% {
        -webkit-transform: translate(0px, 0px);
                transform: translate(0px, 0px)
    }
    0% {
        -webkit-transform: translate(10px, 0px);
                transform: translate(10px, 0px)
    }
    100% {
        -webkit-transform: translate(0px, 0px);
                transform: translate(0px, 0px)
    }
}
@keyframes HJ89wAmV9M_HyvqyE45z_Animation {
    5.56% {
        -webkit-transform: translate(10px, 0px);
                transform: translate(10px, 0px)
    }
    16.67% {
        -webkit-transform: translate(20px, 0px);
                transform: translate(20px, 0px)
    }
    25% {
        -webkit-transform: translate(30px, 0px);
                transform: translate(30px, 0px)
    }
    33.33% {
        -webkit-transform: translate(30px, 10px);
                transform: translate(30px, 10px)
    }
    41.67% {
        -webkit-transform: translate(30px, 20px);
                transform: translate(30px, 20px)
    }
    50% {
        -webkit-transform: translate(30px, 30px);
                transform: translate(30px, 30px)
    }
    58.33% {
        -webkit-transform: translate(20px, 30px);
                transform: translate(20px, 30px)
    }
    66.67% {
        -webkit-transform: translate(10px, 30px);
                transform: translate(10px, 30px)
    }
    75% {
        -webkit-transform: translate(0px, 30px);
                transform: translate(0px, 30px)
    }
    83.33% {
        -webkit-transform: translate(0px, 20px);
                transform: translate(0px, 20px)
    }
    91.67% {
        -webkit-transform: translate(0px, 10px);
                transform: translate(0px, 10px)
    }
    98.15% {
        -webkit-transform: translate(0px, 0px);
                transform: translate(0px, 0px)
    }
    0% {
        -webkit-transform: translate(10px, 0px);
                transform: translate(10px, 0px)
    }
    100% {
        -webkit-transform: translate(0px, 0px);
                transform: translate(0px, 0px)
    }
}
#S1cw0XE9z * {
    -webkit-animation-duration: 3.6s;
            animation-duration: 3.6s;
    -webkit-animation-iteration-count: infinite;
            animation-iteration-count: infinite;
    -webkit-animation-timing-function: cubic-bezier(0, 0, 1, 1);
            animation-timing-function: cubic-bezier(0, 0, 1, 1);
    transform-box: fill-box;
    -webkit-transform-origin: 50% 50%;
            transform-origin: 50% 50%
}
#HJ89wAmV9M_HJksR7VcM {
    -webkit-transform-origin: undefined;
            transform-origin: undefined
}
#HJ89wAmV9M_Ski3RXNqz {
    -webkit-transform-origin: undefined;
            transform-origin: undefined
}
#HJ89wAmV9M_rJkJyEEcz {
    -webkit-transform-origin: undefined;
            transform-origin: undefined
}
#HJ89wAmV9M_HyvqyE45z {
    -webkit-animation-name: HJ89wAmV9M_HyvqyE45z_Animation;
            animation-name: HJ89wAmV9M_HyvqyE45z_Animation;
    -webkit-transform-origin: undefined;
            transform-origin: undefined
}
#HJ89wAmV9M {
    -webkit-animation-name: HJ89wAmV9M_Animation;
            animation-name: HJ89wAmV9M_Animation;
    -webkit-transform-origin: undefined;
            transform-origin: undefined
}
#BkS9wR7VcM_Hy-0GN4qz {
    -webkit-transform-origin: undefined;
            transform-origin: undefined
}
#BkS9wR7VcM_SkEZ7EVcG {
    -webkit-animation-name: BkS9wR7VcM_SkEZ7EVcG_Animation;
            animation-name: BkS9wR7VcM_SkEZ7EVcG_Animation;
    -webkit-transform-origin: undefined;
            transform-origin: undefined
}
#S1ucPAXN9M_Syg2NVVcz {
    -webkit-transform-origin: 0% 100%;
            transform-origin: 0% 100%
}
#S1ucPAXN9M_BkfTNEV5G {
    -webkit-animation-name: S1ucPAXN9M_BkfTNEV5G_Animation;
            animation-name: S1ucPAXN9M_BkfTNEV5G_Animation;
    -webkit-transform-origin: 50% 50%;
            transform-origin: 50% 50%
}
#HkwcvAmN5G_rkM5rEE9G {
    -webkit-animation-name: HkwcvAmN5G_rkM5rEE9G_Animation;
            animation-name: HkwcvAmN5G_rkM5rEE9G_Animation;
    -webkit-transform-origin: undefined;
            transform-origin: undefined
}
.st0{fill:#99D749;stroke:#888988;stroke-miterlimit:10;}
	.st1{fill:#00B419;stroke:#888988;stroke-miterlimit:10;}
	.st2{fill:#BCDF00;stroke:#05B400;stroke-miterlimit:10;}
	.st3{fill:#00B442;stroke:#888988;stroke-miterlimit:10;}
	.st4{fill:none;}
	.st5{fill:#5AF52F;stroke:#888988;stroke-miterlimit:10;}
	.st6{font-family:'ComicSansMS-Bold';}
	.st7{font-size:45px;font-weight:bold}
	.st8{letter-spacing:3;}
    </style>
    <style type="text/css"/>
    <g id="rJgqvCm4cG">
        <path class="st0" d="m396.212,80.894h-38.218v-44.272c0-4.142-3.358-7.5-7.5-7.5s-7.5,3.358-7.5,7.5v44.272h-20.594v-19.178c0-4.142-3.358-7.5-7.5-7.5s-7.5,3.358-7.5,7.5v19.178h-209.887v-26.475c0-4.142-3.358-7.5-7.5-7.5s-7.5,3.358-7.5,7.5v26.476h-31.747c-27.993-0.001-50.766,22.773-50.766,50.765v67.168c0,27.993 22.773,50.766 50.766,50.766h21.303v29.711c0,2.761 2.239,5 5,5h7.943v19.269c0,2.761 2.239,5 5,5s5-2.239 5-5v-19.269h7.943c2.761,0 5-2.239 5-5v-29.711h42.998c2.701,0 5.193-1.452 6.525-3.802l16.182-28.556h80.35v114.432h-246.51c-4.142,0-7.5,3.358-7.5,7.5v71.188c0,4.142 3.358,7.5 7.5,7.5h431.978c4.142,0 7.5-3.358 7.5-7.5v-278.696c0-27.992-22.773-50.766-50.766-50.766zm-317.379,109.575h22.358v9.415h-22.358v-9.415zm22.358-10h-22.358v-61.188h22.358v61.188zm0-71.188h-22.358v-13.387h22.358v13.387zm-3.235,165.025h-15.887v-24.711h15.886v24.711zm163.555,72.363c4.142,0 7.5-3.358 7.5-7.5v-129.432c0-4.142-3.358-7.5-7.5-7.5h-92.22c-2.701,0-5.193,1.453-6.525,3.802l-16.182,28.556h-95.817c-19.722,0-35.766-16.044-35.766-35.766v-67.169c0-19.722 16.044-35.766 35.766-35.766h18.067v108.989c0,2.761 2.239,5 5,5h32.358c2.761,0 5-2.239 5-5v-108.989h285.021c19.722,0 35.766,16.044 35.766,35.766v223.541h-416.978v-8.533h246.51zm-246.51,56.188v-37.655h416.978v37.655h-416.978z" id="Hy-5P0Q4cM"/>
        <path class="st1" d="m278.083,208.776v33.859c0,39.928 32.483,72.411 72.411,72.411 39.928,0 72.411-32.483 72.411-72.411v-110.975c0-14.719-11.974-26.693-26.693-26.693h-140.905c-24.316,0-44.098,19.782-44.098,44.098s19.782,44.098 44.098,44.098h7.164c8.608,0.001 15.612,7.004 15.612,15.613zm-22.776-25.612c-18.802,0-34.098-15.296-34.098-34.098s15.296-34.098 34.098-34.098h140.906c9.205,0 16.693,7.488 16.693,16.693v110.975c0,34.414-27.998,62.411-62.412,62.411-34.414,0-62.411-27.998-62.411-62.411v-33.859c0-14.123-11.489-25.612-25.612-25.612h-7.164z" id="SJzcDRmNqf"/>
        <path class="st2" d="m350.494,285.905c10.396,0 20.791-3.957 28.705-11.87 15.828-15.828 15.828-41.581 0-57.409-15.829-15.828-41.581-15.827-57.409,0-15.827,15.828-15.827,41.581 0,57.409 7.914,7.913 18.309,11.87 28.704,11.87zm-21.633-62.208c5.964-5.964 13.799-8.946 21.633-8.946 7.834,0 15.668,2.982 21.633,8.946 11.929,11.928 11.929,31.338 0,43.266-11.929,11.928-31.338,11.928-43.266,0-11.928-11.928-11.928-31.338 5.68434e-14-43.266z" id="SJ7qD0QEqG"/>
        <path class="st2" d="m258.274,125.46c-12.57,0-22.797,10.227-22.797,22.796 0,12.57 10.227,22.797 22.797,22.797s22.797-10.227 22.797-22.797c0-12.569-10.227-22.796-22.797-22.796zm0,35.593c-7.056,0-12.797-5.741-12.797-12.797s5.741-12.796 12.797-12.796 12.797,5.74 12.797,12.796-5.741,12.797-12.797,12.797z" id="r1E5w07N5M"/>
        <g id="BkS9wR7VcM_SkEZ7EVcG" data-animator-group="true" data-animator-type="2">
            <path class="st2" d="m172.525,115.753h-37.212c-2.761,0-5,2.239-5,5v51.772c0,2.761 2.239,5 5,5h37.212c2.761,0 5-2.239 5-5v-51.772c2.84217e-14-2.762-2.238-5-5-5zm-5,51.772h-27.212v-41.772h27.212v41.772z" id="BkS9wR7VcM"/>
        </g>
        <g id="HJ89wAmV9M_HyvqyE45z" data-animator-group="true" data-animator-type="0">
            <path class="st3" d="m336.262,238.598c1.98,0 3.91-0.8 5.31-2.19 1.39-1.4 2.19-3.33 2.19-5.31 0-1.97-0.8-3.9-2.19-5.3-1.4-1.4-3.33-2.2-5.31-2.2-1.97,0-3.9,0.8-5.3,2.2-1.4,1.4-2.2,3.33-2.2,5.3 0,1.98 0.8,3.91 2.2,5.31 1.4,1.39 3.33,2.19 5.3,2.19z" id="HJ89wAmV9M"/>
        </g>
        <g id="HkwcvAmN5G_rkM5rEE9G" data-animator-group="true" data-animator-type="0">
            <path class="st2" d="m325.745,143.507h49.498c2.761,0 5-2.239 5-5s-2.239-5-5-5h-49.498c-2.761,0-5,2.239-5,5s2.239,5 5,5z" id="HkwcvAmN5G"/>
        </g>
        <g id="S1ucPAXN9M_BkfTNEV5G" data-animator-group="true" data-animator-type="0">
            <path class="st2" d="m325.745,163.006h49.498c2.761,0 5-2.239 5-5s-2.239-5-5-5h-49.498c-2.761,0-5,2.239-5,5s2.239,5 5,5z" id="S1ucPAXN9M"/>
        </g>
    </g>
	<rect x="257.5" y="367.3" class="st4" width="278.3" height="33.5"/>
<text transform="matrix(1 0 0 1 257.475 398.3994)" class="st5 st6 st7 st8">Sew.am</text>
<rect x="270" y="381" class="st4" width="184.5" height="11"/>
</svg>